<svg xmlns="http://www.w3.org/2000/svg" viewBox="0 0 39.5 40.542">
  <defs>
    <style>
      .cls-1 {
        fill: none;
      }

      .cls-2, .cls-5 {
        fill: #ea5045;
      }

      .cls-3 {
        fill: #fff;
        font-size: 10px;
        font-family: HelveticaNeue-Light, Helvetica Neue;
        font-weight: 300;
      }

      .cls-4, .cls-5 {
        stroke: none;
      }
    </style>
  </defs>
  <g id="CHAT" transform="translate(-45.988 -737)">
    <g id="Path_3" data-name="Path 3" class="cls-1" transform="translate(46 741)">
      <path class="cls-4" d="M6,0H29a6,6,0,0,1,6,6V27.586c0,3.314,2.686,4.562,4.488,8.956l-22.153-3.3C12.707,32.295-.464,31.971,0,27V6A6,6,0,0,1,6,0Z"/>
      <path class="cls-5" d="M 6.000003814697266 0.9999961853027344 C 3.242992401123047 0.9999961853027344 1.000003814697266 3.242984771728516 1.000003814697266 5.999994277954102 L 1.000003814697266 26.99999618530273 L 1.000003814697266 27.04653549194336 L 0.9956817626953125 27.0928840637207 C 0.9612846374511719 27.46162414550781 1.005352020263672 28.0259952545166 1.781894683837891 28.66719436645508 C 2.415603637695312 29.19046401977539 3.413082122802734 29.6660041809082 4.746623992919922 30.08059501647949 C 7.359203338623047 30.89284515380859 10.81214332580566 31.33152389526367 13.58663368225098 31.68400573730469 C 15.14610481262207 31.88212203979492 16.4948902130127 32.0534782409668 17.50802993774414 32.25959396362305 L 37.77143096923828 35.27540588378906 C 37.23573303222656 34.3091926574707 36.66786193847656 33.51735305786133 36.14592361450195 32.78954315185547 C 35.04236221313477 31.25070571899414 34.00000381469727 29.79720497131348 34.00000381469727 27.58587646484375 L 34.00000381469727 5.999994277954102 C 34.00000381469727 3.242984771728516 31.75701332092285 0.9999961853027344 29.00000381469727 0.9999961853027344 L 6.000003814697266 0.9999961853027344 M 6.000003814697266 -3.814697265625e-06 L 29.00000381469727 -3.814697265625e-06 C 32.31371307373047 -3.814697265625e-06 35.00000381469727 2.686294555664062 35.00000381469727 5.999994277954102 L 35.00000381469727 27.58587646484375 C 35.00000381469727 30.89958572387695 37.6859130859375 32.148193359375 39.48773193359375 36.54186630249023 L 17.33429336547852 33.24475479125977 C 12.70709419250488 32.29479598999023 -0.4637451171875 31.97112464904785 3.814697265625e-06 26.99999618530273 L 3.814697265625e-06 5.999994277954102 C 3.814697265625e-06 2.686294555664062 2.686294555664062 -3.814697265625e-06 6.000003814697266 -3.814697265625e-06 Z"/>
    </g>
    <ellipse id="Ellipse_6" data-name="Ellipse 6" class="cls-2" cx="7" cy="7.5" rx="7" ry="7.5" transform="translate(71 737)"/>
    <text id="_1" data-name="1" class="cls-3" transform="translate(75 747)"><tspan x="0" y="0">1</tspan></text>
  </g>
</svg>
