<svg xmlns="http://www.w3.org/2000/svg" viewBox="0 0 23.79 23.79">
  <defs>
    <style>
      .cls-1, .cls-4, .cls-6 {
        fill: none;
      }

      .cls-1 {
        stroke: #6c6c6c;
      }

      .cls-2 {
        fill: #6c6c6c;
      }

      .cls-3 {
        fill: #f2f2f2;
      }

      .cls-4 {
        stroke: #f2f2f2;
        stroke-width: 0.5px;
      }

      .cls-5 {
        stroke: none;
      }
    </style>
  </defs>
  <g id="Group_17" data-name="Group 17" transform="translate(-14 -102)">
    <g id="Ellipse_10" data-name="Ellipse 10" class="cls-1" transform="translate(14 102)">
      <circle class="cls-5" cx="11.895" cy="11.895" r="11.895"/>
      <circle class="cls-6" cx="11.895" cy="11.895" r="11.395"/>
    </g>
    <path id="Path_10" data-name="Path 10" class="cls-2" d="M4.171,6.391c.034,0,3.1,0,3.245,0l.158,0c4.774-.044,7.758,5.148,6.805,6.212-1.369,2.194-4.1,3.617-8.3,3.617s-8.69-2.551-8.612-4.122S-.024,6.391,4.171,6.391Z" transform="translate(19.967 109.226)"/>
    <circle id="Ellipse_11" data-name="Ellipse 11" class="cls-2" cx="4.813" cy="4.813" r="4.813" transform="translate(21.324 105.44)"/>
    <ellipse id="Ellipse_13" data-name="Ellipse 13" class="cls-3" cx="0.602" cy="0.902" rx="0.602" ry="0.902" transform="translate(23.129 108.449)"/>
    <ellipse id="Ellipse_14" data-name="Ellipse 14" class="cls-3" cx="0.602" cy="0.902" rx="0.602" ry="0.902" transform="translate(27.942 108.449)"/>
    <path id="Path_11" data-name="Path 11" class="cls-4" d="M0,0A3.417,3.417,0,0,0,1.534.488,3.053,3.053,0,0,0,3.008,0" transform="translate(24.633 112.359)"/>
  </g>
</svg>
