<svg xmlns="http://www.w3.org/2000/svg" viewBox="0 0 35 32.781">
  <defs>
    <style>
      .cls-1 {
        fill: #ea5045;
      }
    </style>
  </defs>
  <g id="PROFILE" transform="translate(-168 -741)">
    <path id="Subtraction_2" data-name="Subtraction 2" class="cls-1" d="M-796.386-64.22v0h0a13.561,13.561,0,0,0-4.718-7.351,13.425,13.425,0,0,0-3.872-2.151A13.454,13.454,0,0,0-809.5-74.5a13.454,13.454,0,0,0-4.523.777,13.426,13.426,0,0,0-3.872,2.151,13.555,13.555,0,0,0-4.718,7.352A6.016,6.016,0,0,1-827-70V-91a6.007,6.007,0,0,1,6-6h23a6.007,6.007,0,0,1,6,6v21A6.018,6.018,0,0,1-796.386-64.22ZM-809.5-90.5A6.508,6.508,0,0,0-816-84a6.508,6.508,0,0,0,6.5,6.5A6.507,6.507,0,0,0-803-84,6.507,6.507,0,0,0-809.5-90.5Z" transform="translate(995 838)"/>
  </g>
</svg>
