<svg xmlns="http://www.w3.org/2000/svg" viewBox="0 0 18.789 16.845">
  <defs>
    <style>
      .cls-1 {
        fill: #ea5045;
      }

      .cls-2 {
        fill: #fff;
      }
    </style>
  </defs>
  <g id="Group_26" data-name="Group 26" transform="translate(-307 -205)">
    <g id="unliked">
      <path id="Path_23" data-name="Path 23" class="cls-1" d="M17.27,13.948,9.013,22.4.756,13.948Z" transform="translate(307.382 199.441)"/>
      <circle id="Ellipse_34" data-name="Ellipse 34" class="cls-1" cx="5.183" cy="5.183" r="5.183" transform="translate(307 205)"/>
      <path id="Path_24" data-name="Path 24" class="cls-1" d="M5.183,0A5.183,5.183,0,1,1,0,5.183,5.183,5.183,0,0,1,5.183,0Z" transform="translate(315.423 205)"/>
      <rect id="Rectangle_32" data-name="Rectangle 32" class="cls-1" width="3" height="3" transform="translate(315 212)"/>
      <circle id="Ellipse_35" data-name="Ellipse 35" class="cls-2" cx="4.183" cy="4.183" r="4.183" transform="translate(308 206)"/>
      <path id="Path_26" data-name="Path 26" class="cls-2" d="M4.24,0A4.24,4.24,0,1,1,0,4.24,4.24,4.24,0,0,1,4.24,0Z" transform="translate(316.366 205.943)"/>
      <path id="Path_27" data-name="Path 27" class="cls-2" d="M13.29,13.948l-6.3,6.388L1.041,14.2Z" transform="translate(309.401 200.475)"/>
      <path id="Path_28" data-name="Path 28" class="cls-2" d="M14.533,16.338,13.231,18,6.116,20.252,1.04,18.208-.62,16.171Z" transform="translate(309.401 196.475)"/>
      <rect id="Rectangle_36" data-name="Rectangle 36" class="cls-2" width="5" height="5" transform="translate(314 210)"/>
    </g>
  </g>
</svg>
